<?xml version="1.0" encoding="iso-8859-1"?>
<!-- Generator: Adobe Illustrator 24.0.3, SVG Export Plug-In . SVG Version: 6.00 Build 0)  -->
<svg version="1.1" xmlns="http://www.w3.org/2000/svg" xmlns:xlink="http://www.w3.org/1999/xlink" x="0px" y="0px"
	 viewBox="0 0 64 64" style="enable-background:new 0 0 64 64;" xml:space="preserve">
<g id="female-avatar">
	<path style="fill:#47705D;" d="M49.864,56.471v-1.1h4.112c0.195,0,0.383-0.082,0.515-0.227c0.131-0.142,0.199-0.337,0.181-0.532
		l-1.387-15.925c-0.319-3.683-3.222-6.614-6.901-6.972l-0.458-0.043V16.691c0-5.819-4.733-10.556-10.556-10.556
		c-5.819,0-10.556,4.737-10.556,10.556v15.03c-3.658,0.373-6.543,3.296-6.862,6.965l-1.387,15.925
		c-0.018,0.195,0.046,0.39,0.177,0.532c0.135,0.145,0.319,0.227,0.515,0.227h4.371v1.1h-6.029V45.372
		c0-0.383-0.312-0.695-0.699-0.695H4.921c-0.387,0-0.699,0.312-0.699,0.695v1.565H3.346c-1.536,0-2.789,1.253-2.789,2.792v3.083
		c0,1.54,1.253,2.789,2.789,2.789h0.876v0.869H0v1.394h64v-1.394H49.864z M4.222,54.207H3.346c-0.77,0-1.394-0.624-1.394-1.394
		v-3.083c0-0.77,0.624-1.394,1.394-1.394h0.876V54.207z M14.204,56.471H5.617v-10.4h8.587V56.471z M26.211,16.691
		c0-5.053,4.109-9.162,9.158-9.162c5.053,0,9.162,4.109,9.162,9.162v14.842l-3.687-0.358l-0.756-3.342
		c1.529-2.282,2.484-5.674,2.484-9.531c0-0.188-0.078-0.373-0.216-0.504c-0.138-0.131-0.326-0.206-0.515-0.192
		c-0.028,0-2.902,0.114-4.471-0.777c-1.607-0.912-3.559-3.8-3.58-3.832c-0.177-0.263-0.511-0.373-0.813-0.263
		c-0.302,0.11-0.49,0.412-0.461,0.731c0.007,0.043,0.099,1.125-0.926,2.282c-1.125,1.274-2.927,1.888-2.945,1.895
		c-0.284,0.096-0.475,0.362-0.475,0.66c0,4.162,1.114,7.778,2.856,10.045l-0.635,2.828l-4.18,0.408V16.691z M31.7,31.718l0.483-2.15
		c0.958,0.805,2.033,1.267,3.186,1.267c1.32,0,2.544-0.6,3.598-1.636l0.568,2.519l-3.857,7.057h-0.124L31.7,31.718z M33.964,38.775
		h-1.352l-4.574-3.431l2.729-2.42L33.964,38.775z M33.059,16.127c0.185-0.27,0.33-0.532,0.444-0.784
		c0.039-0.082,0.071-0.163,0.103-0.245c0.798,1.004,1.966,2.317,3.073,2.945c1.384,0.784,3.406,0.937,4.485,0.962
		c-0.195,5.723-2.768,10.435-5.794,10.435c-0.082,0-0.163-0.004-0.245-0.011c-0.018-0.004-0.035-0.004-0.057-0.007
		c-0.078-0.007-0.156-0.018-0.231-0.032c-0.06-0.011-0.117-0.025-0.174-0.039h-0.004c-2.746-0.674-4.964-5.205-5.088-10.574
		c0.713-0.302,2.072-0.983,3.062-2.104C32.797,16.489,32.939,16.308,33.059,16.127z M40.464,32.924l2.732,2.42l-4.577,3.431h-1.348
		L40.464,32.924z M21.627,41.568v12.408h-3.609l1.32-15.169c0.263-3.012,2.64-5.411,5.649-5.702l3.903-0.383l-2.416,2.147
		c-0.156,0.138-0.245,0.341-0.234,0.55c0.007,0.209,0.11,0.404,0.277,0.532l3.772,2.824h-5.872
		C22.876,38.775,21.627,40.028,21.627,41.568z M48.469,56.471H23.021V41.568c0-0.77,0.624-1.394,1.394-1.394h22.659
		c0.766,0,1.394,0.624,1.394,1.394V56.471z M47.075,38.775h-6.128l3.768-2.824c0.17-0.128,0.27-0.323,0.28-0.532
		c0.007-0.209-0.078-0.412-0.234-0.55l-2.42-2.147l3.907,0.383c3.009,0.291,5.383,2.69,5.645,5.702l1.323,15.169h-3.353V41.568
		C49.864,40.028,48.611,38.775,47.075,38.775z M11.032,40.067L10.545,39.4c-0.121-0.167-0.163-0.38-0.11-0.578l0.465-1.863
		l-1.355-0.341L9.08,38.481c-0.149,0.603-0.028,1.238,0.337,1.742l0.472,0.642l-0.082,0.979L9.126,42.81l1.139,0.805l0.784-1.111
		C11.567,41.77,11.56,40.791,11.032,40.067z M13.82,40.067L13.338,39.4c-0.124-0.167-0.163-0.38-0.114-0.578l0.465-1.863
		l-1.352-0.341l-0.465,1.863c-0.153,0.603-0.028,1.238,0.337,1.742l0.468,0.642L12.6,41.845l-0.685,0.965l1.139,0.805l0.788-1.111
		C14.356,41.77,14.349,40.791,13.82,40.067z M8.243,40.067L7.756,39.4c-0.121-0.167-0.163-0.38-0.114-0.578l0.465-1.863
		l-1.352-0.341l-0.465,1.863c-0.153,0.603-0.028,1.238,0.337,1.742l0.468,0.642l-0.078,0.979L6.334,42.81l1.143,0.805l0.784-1.111
		C8.775,41.77,8.768,40.791,8.243,40.067z"/>
	<rect x="5.617" y="46.071" style="fill:#9AC1B1;" width="8.587" height="10.4"/>
	<path style="fill:#ABD8C7;" d="M41.163,19.005c-0.195,5.723-2.768,10.435-5.794,10.435c-3.062,0-5.663-4.836-5.798-10.663
		c0.713-0.302,2.072-0.983,3.062-2.104c0.483-0.546,0.784-1.089,0.972-1.575c0.798,1.004,1.966,2.317,3.073,2.945
		C38.062,18.827,40.085,18.98,41.163,19.005z M26.516,35.951c-0.167-0.128-0.27-0.323-0.277-0.532
		c-0.011-0.209,0.078-0.412,0.234-0.55l2.416-2.147l-3.903,0.383c-3.009,0.291-5.386,2.69-5.649,5.702l-1.32,15.169h3.609V41.568
		c0-1.54,1.249-2.792,2.789-2.792h5.872L26.516,35.951z M53.217,53.976l-1.323-15.169c-0.263-3.012-2.636-5.411-5.645-5.702
		l-3.907-0.383l2.42,2.147c0.156,0.138,0.241,0.341,0.234,0.55c-0.011,0.209-0.11,0.404-0.28,0.532l-3.768,2.824h6.128
		c1.536,0,2.789,1.253,2.789,2.792v12.408H53.217z"/>
	<path style="fill:#9AC1B1;" d="M36.678,18.043c-1.107-0.628-2.274-1.941-3.073-2.945c-0.125,0.322-0.306,0.67-0.55,1.027
		c0.673,0.748,1.451,1.491,2.204,1.918c1.384,0.784,3.406,0.937,4.485,0.962c-0.18,5.269-2.375,9.678-5.084,10.345
		c0.233,0.057,0.469,0.09,0.709,0.09c3.027,0,5.599-4.712,5.794-10.435C40.085,18.98,38.062,18.827,36.678,18.043z"/>
</g>
<g id="Layer_1">
</g>
</svg>
