<?xml version="1.0" encoding="utf-8"?>
<!-- Generator: Adobe Illustrator 22.0.0, SVG Export Plug-In . SVG Version: 6.00 Build 0)  -->
<svg version="1.1" xmlns="http://www.w3.org/2000/svg" xmlns:xlink="http://www.w3.org/1999/xlink" x="0px" y="0px"
	 viewBox="0 0 256 256" style="enable-background:new 0 0 256 256;" xml:space="preserve">
<style type="text/css">
	.st0{display:none;}
	.st1{display:inline;}
	.st2{fill:none;stroke:#6B1D1D;stroke-width:0.5;stroke-miterlimit:10;}
	.st3{fill:#3A312A;}
	.st4{fill:#87796F;}
	.st5{fill:#D5DE58;}
	.st6{fill:#695B51;}
	.st7{fill:#FCE8CB;}
	.st8{fill:#F16C7A;}
	.st9{fill:#8AC6DD;}
	.st10{fill:#DECAAD;}
	.st11{fill:#D6DF58;}
	.st12{fill-rule:evenodd;clip-rule:evenodd;fill:#FCE8CB;}
	.st13{fill:#F5978A;}
	.st14{fill:#D7E057;}
	.st15{fill-rule:evenodd;clip-rule:evenodd;fill:#87796F;}
	.st16{fill:#6CA8BF;}
	.st17{fill:#B9C239;}
	.st18{fill:#D34E5C;}
	.st19{fill:#FAE6CA;}
	.st20{fill:#F8E4C8;}
	.st21{fill:#8AC5DC;}
	.st22{fill:#EF6D7A;}
	.st23{fill:#EB6E7A;}
	.st24{fill:#89C4DB;}
	.st25{fill-rule:evenodd;clip-rule:evenodd;fill:#F16C7A;}
	.st26{fill:#F7E3C7;}
	.st27{fill:#F6E2C6;}
	.st28{fill:#ED6E7A;}
	.st29{fill:#8AC3DA;}
	.st30{fill:#D5DC57;}
	.st31{fill-rule:evenodd;clip-rule:evenodd;fill:#D7E057;}
	.st32{fill-rule:evenodd;clip-rule:evenodd;fill:#F8E4C8;}
	.st33{fill:#D4DB56;}
	.st34{fill:#F59689;}
	.st35{fill:#DDC9AC;}
	.st36{fill:#D24E5C;}
	.st37{fill:#6A5C52;}
	.st38{fill:#6CA6BE;}
	.st39{fill:#B8C136;}
	.st40{fill-rule:evenodd;clip-rule:evenodd;fill:#FAE6CA;}
</style>
<g id="Layer_2" class="st0">
	<g class="st1">
		<g>
			<line class="st2" x1="0" y1="4.829" x2="256" y2="4.829"/>
			<line class="st2" x1="0" y1="16.56" x2="256" y2="16.56"/>
			<line class="st2" x1="0" y1="28.29" x2="256" y2="28.29"/>
			<line class="st2" x1="0" y1="40.021" x2="256" y2="40.021"/>
			<line class="st2" x1="0" y1="51.751" x2="256" y2="51.751"/>
			<line class="st2" x1="0" y1="63.482" x2="256" y2="63.482"/>
			<line class="st2" x1="0" y1="75.213" x2="256" y2="75.213"/>
			<line class="st2" x1="0" y1="86.943" x2="256" y2="86.943"/>
			<line class="st2" x1="0" y1="98.674" x2="256" y2="98.674"/>
			<line class="st2" x1="0" y1="110.404" x2="256" y2="110.404"/>
			<line class="st2" x1="0" y1="122.135" x2="256" y2="122.135"/>
			<line class="st2" x1="0" y1="133.865" x2="256" y2="133.865"/>
			<line class="st2" x1="0" y1="145.596" x2="256" y2="145.596"/>
			<line class="st2" x1="0" y1="157.326" x2="256" y2="157.326"/>
			<line class="st2" x1="0" y1="169.057" x2="256" y2="169.057"/>
			<line class="st2" x1="0" y1="180.788" x2="256" y2="180.788"/>
			<line class="st2" x1="0" y1="192.518" x2="256" y2="192.518"/>
			<line class="st2" x1="0" y1="204.249" x2="256" y2="204.249"/>
			<line class="st2" x1="0" y1="215.979" x2="256" y2="215.979"/>
			<line class="st2" x1="0" y1="227.71" x2="256" y2="227.71"/>
			<line class="st2" x1="0" y1="239.44" x2="256" y2="239.44"/>
			<line class="st2" x1="0" y1="251.171" x2="256" y2="251.171"/>
		</g>
		<g>
			<line class="st2" x1="251.171" y1="0" x2="251.171" y2="256"/>
			<line class="st2" x1="239.44" y1="0" x2="239.44" y2="256"/>
			<line class="st2" x1="227.71" y1="0" x2="227.71" y2="256"/>
			<line class="st2" x1="215.979" y1="0" x2="215.979" y2="256"/>
			<line class="st2" x1="204.249" y1="0" x2="204.249" y2="256"/>
			<line class="st2" x1="192.518" y1="0" x2="192.518" y2="256"/>
			<line class="st2" x1="180.787" y1="0" x2="180.787" y2="256"/>
			<line class="st2" x1="169.057" y1="0" x2="169.057" y2="256"/>
			<line class="st2" x1="157.326" y1="0" x2="157.326" y2="256"/>
			<line class="st2" x1="145.596" y1="0" x2="145.596" y2="256"/>
			<line class="st2" x1="133.865" y1="0" x2="133.865" y2="256"/>
			<line class="st2" x1="122.135" y1="0" x2="122.135" y2="256"/>
			<line class="st2" x1="110.404" y1="0" x2="110.404" y2="256"/>
			<line class="st2" x1="98.674" y1="0" x2="98.674" y2="256"/>
			<line class="st2" x1="86.943" y1="0" x2="86.943" y2="256"/>
			<line class="st2" x1="75.212" y1="0" x2="75.212" y2="256"/>
			<line class="st2" x1="63.482" y1="0" x2="63.482" y2="256"/>
			<line class="st2" x1="51.751" y1="0" x2="51.751" y2="256"/>
			<line class="st2" x1="40.021" y1="0" x2="40.021" y2="256"/>
			<line class="st2" x1="28.29" y1="0" x2="28.29" y2="256"/>
			<line class="st2" x1="16.56" y1="0" x2="16.56" y2="256"/>
			<line class="st2" x1="4.829" y1="0" x2="4.829" y2="256"/>
		</g>
	</g>
</g>
<g id="Layer_1">
	<g>
		<path class="st20" d="M239.243,90.383c-35.613-14.752-75.628-14.752-111.241,0c0,49.689,0,99.377,0,149.065
			c35.613-14.751,75.628-14.751,111.241,0C239.243,189.76,239.243,140.072,239.243,90.383z"/>
		<path class="st3" d="M128.001,240.949c-0.292,0-0.583-0.085-0.833-0.253c-0.417-0.278-0.667-0.746-0.667-1.247V90.383
			c0-0.607,0.365-1.154,0.926-1.386c36.24-15.011,76.154-15.009,112.39,0c0.561,0.232,0.926,0.779,0.926,1.386v149.065
			c0,0.501-0.25,0.969-0.667,1.247c-0.416,0.279-0.945,0.33-1.407,0.139c-35.495-14.703-74.595-14.704-110.093,0
			C128.391,240.911,128.196,240.949,128.001,240.949z M129.502,91.389v145.832c34.989-13.888,73.252-13.887,108.241,0V91.389
			C202.803,77.192,164.446,77.191,129.502,91.389z"/>
		<path class="st20" d="M16.757,149.096v90.352c35.613-14.751,75.628-14.751,111.241,0V90.383
			c-35.613-14.752-75.628-14.752-111.241,0v45.52V149.096z"/>
		<path class="st3" d="M127.998,240.949c-0.194,0-0.389-0.038-0.574-0.114c-35.497-14.703-74.596-14.704-110.093,0
			c-0.464,0.192-0.991,0.14-1.408-0.139c-0.417-0.278-0.667-0.746-0.667-1.247v-90.352c0-0.829,0.671-1.5,1.5-1.5
			c0.829,0,1.5,0.671,1.5,1.5v88.125c34.991-13.889,73.252-13.889,108.242,0V91.389c-34.942-14.198-73.297-14.198-108.242,0v44.515
			c0,0.829-0.671,1.5-1.5,1.5c-0.829,0-1.5-0.671-1.5-1.5v-45.52c0-0.607,0.365-1.154,0.926-1.386
			c36.239-15.011,76.152-15.011,112.39,0c0.56,0.232,0.925,0.779,0.925,1.386v149.065c0,0.501-0.25,0.969-0.666,1.247
			C128.581,240.863,128.291,240.949,127.998,240.949z"/>
		<path class="st3" d="M115.178,212.874c-0.146,0-0.295-0.021-0.442-0.067c-27.718-8.549-57.012-8.548-84.716,0
			c-0.791,0.245-1.631-0.199-1.876-0.991c-0.245-0.792,0.199-1.631,0.991-1.876c28.282-8.727,58.188-8.727,86.484,0
			c0.792,0.244,1.236,1.084,0.992,1.875C116.413,212.46,115.819,212.874,115.178,212.874z"/>
		<path class="st3" d="M141.409,212.68c-0.643,0-1.237-0.417-1.435-1.064c-0.24-0.793,0.207-1.63,0.999-1.871
			c27.817-8.452,57.24-8.471,85.089-0.056c0.793,0.24,1.242,1.077,1.002,1.87c-0.239,0.794-1.081,1.239-1.869,1.002
			c-27.279-8.243-56.101-8.224-83.349,0.054C141.701,212.659,141.554,212.68,141.409,212.68z"/>
		<path class="st3" d="M29.577,192.164c-0.641,0-1.234-0.414-1.433-1.058c-0.245-0.792,0.199-1.631,0.991-1.876
			c28.282-8.728,58.188-8.727,86.484,0c0.792,0.244,1.236,1.084,0.992,1.875c-0.244,0.792-1.085,1.235-1.875,0.992
			c-27.718-8.549-57.012-8.548-84.716,0C29.873,192.142,29.724,192.164,29.577,192.164z"/>
		<path class="st3" d="M141.409,191.971c-0.643,0-1.237-0.417-1.435-1.064c-0.24-0.792,0.207-1.63,0.999-1.871
			c27.818-8.453,57.241-8.471,85.089-0.056c0.793,0.24,1.242,1.077,1.002,1.87c-0.239,0.794-1.081,1.24-1.869,1.002
			c-27.279-8.243-56.101-8.225-83.349,0.054C141.701,191.95,141.554,191.971,141.409,191.971z"/>
		<path class="st3" d="M115.178,171.454c-0.146,0-0.295-0.021-0.442-0.067c-27.718-8.549-57.012-8.548-84.716-0.001
			c-0.791,0.244-1.631-0.199-1.876-0.991c-0.245-0.791,0.199-1.631,0.991-1.876c28.282-8.727,58.188-8.727,86.484,0
			c0.792,0.244,1.236,1.084,0.992,1.875C116.413,171.04,115.819,171.454,115.178,171.454z"/>
		<path class="st3" d="M141.409,171.261c-0.643,0-1.237-0.417-1.435-1.064c-0.24-0.793,0.207-1.63,0.999-1.871
			c27.818-8.452,57.241-8.47,85.089-0.056c0.793,0.24,1.242,1.077,1.002,1.87c-0.239,0.793-1.081,1.239-1.869,1.002
			c-27.279-8.243-56.101-8.224-83.349,0.054C141.701,171.24,141.554,171.261,141.409,171.261z"/>
		<path class="st3" d="M115.178,150.745c-0.146,0-0.295-0.021-0.442-0.067c-27.718-8.549-57.012-8.548-84.716-0.001
			c-0.791,0.245-1.631-0.199-1.876-0.991c-0.245-0.791,0.199-1.631,0.991-1.875c28.282-8.728,58.188-8.727,86.484-0.001
			c0.792,0.244,1.236,1.084,0.992,1.876C116.413,150.331,115.819,150.745,115.178,150.745z"/>
		<path class="st3" d="M141.409,150.551c-0.643,0-1.237-0.417-1.435-1.064c-0.24-0.792,0.207-1.63,0.999-1.871
			c27.818-8.453,57.241-8.471,85.089-0.056c0.793,0.24,1.242,1.077,1.002,1.87c-0.239,0.794-1.081,1.24-1.869,1.002
			c-27.279-8.243-56.101-8.225-83.349,0.054C141.701,150.53,141.554,150.551,141.409,150.551z"/>
		<path class="st3" d="M29.577,130.035c-0.641,0-1.234-0.414-1.433-1.058c-0.245-0.791,0.199-1.631,0.991-1.875
			c28.282-8.728,58.188-8.727,86.484,0c0.792,0.244,1.236,1.084,0.992,1.876c-0.244,0.792-1.085,1.238-1.875,0.992
			c-27.718-8.549-57.012-8.548-84.716-0.001C29.873,130.013,29.724,130.035,29.577,130.035z"/>
		<path class="st3" d="M141.409,129.841c-0.643,0-1.237-0.417-1.435-1.064c-0.24-0.793,0.207-1.63,0.999-1.871
			c27.818-8.452,57.241-8.47,85.089-0.056c0.793,0.24,1.242,1.077,1.002,1.87c-0.239,0.794-1.081,1.239-1.869,1.002
			c-27.279-8.243-56.101-8.224-83.349,0.054C141.701,129.82,141.554,129.841,141.409,129.841z"/>
		<path class="st3" d="M115.178,109.325c-0.146,0-0.295-0.021-0.442-0.067c-27.718-8.549-57.012-8.548-84.716-0.001
			c-0.791,0.244-1.631-0.199-1.876-0.991c-0.245-0.791,0.199-1.631,0.991-1.875c28.282-8.728,58.188-8.727,86.484-0.001
			c0.792,0.244,1.236,1.084,0.992,1.876C116.413,108.911,115.819,109.325,115.178,109.325z"/>
		<path class="st3" d="M141.409,109.132c-0.643,0-1.237-0.417-1.435-1.064c-0.24-0.792,0.207-1.63,0.999-1.871
			c27.817-8.452,57.24-8.471,85.089-0.056c0.793,0.24,1.242,1.077,1.002,1.87c-0.239,0.794-1.081,1.24-1.869,1.002
			c-27.279-8.242-56.101-8.224-83.349,0.054C141.701,109.111,141.554,109.132,141.409,109.132z"/>
		<circle class="st21" cx="128" cy="151.716" r="61"/>
		<path class="st3" d="M128,214.216c-34.462,0-62.5-28.038-62.5-62.5s28.038-62.5,62.5-62.5c34.463,0,62.5,28.038,62.5,62.5
			S162.463,214.216,128,214.216z M128,92.216c-32.809,0-59.5,26.691-59.5,59.5s26.691,59.5,59.5,59.5
			c32.809,0,59.5-26.691,59.5-59.5S160.809,92.216,128,92.216z"/>
		<path class="st3" d="M128,214.216c-23.317,0-42.287-28.038-42.287-62.5s18.97-62.5,42.287-62.5
			c23.316,0,42.286,28.038,42.286,62.5S151.316,214.216,128,214.216z M128,92.216c-21.663,0-39.287,26.691-39.287,59.5
			s17.624,59.5,39.287,59.5c21.662,0,39.286-26.691,39.286-59.5S149.662,92.216,128,92.216z"/>
		<path class="st3" d="M128,214.216c-11.248,0-17.317-32.202-17.317-62.5s6.069-62.5,17.317-62.5
			c11.247,0,17.316,32.202,17.316,62.5S139.247,214.216,128,214.216z M128,92.216c-6.772,0-14.317,24.436-14.317,59.5
			c0,35.065,7.545,59.5,14.317,59.5c6.771,0,14.316-24.435,14.316-59.5C142.316,116.652,134.771,92.216,128,92.216z"/>
		<path class="st3" d="M128,194.003c-34.462,0-62.5-18.97-62.5-42.287S93.538,109.43,128,109.43c34.463,0,62.5,18.97,62.5,42.287
			S162.463,194.003,128,194.003z M128,112.43c-32.809,0-59.5,17.624-59.5,39.287s26.691,39.287,59.5,39.287
			c32.809,0,59.5-17.624,59.5-39.287S160.809,112.43,128,112.43z"/>
		<path class="st3" d="M128,169.033c-30.298,0-62.5-6.069-62.5-17.317c0-11.247,32.202-17.317,62.5-17.317
			c30.299,0,62.5,6.069,62.5,17.317C190.5,162.964,158.299,169.033,128,169.033z M128,137.399c-35.065,0-59.5,7.545-59.5,14.317
			s24.435,14.317,59.5,14.317s59.5-7.545,59.5-14.317S163.064,137.399,128,137.399z"/>
		<path class="st11" d="M47.911,26.228c0,0,3.408,12.659,13.222,13.246c0,0-13.1,4.525-13.321,14.202
			c0,0-2.579-13.572-12.925-14.059C34.887,39.618,46.937,37.792,47.911,26.228z"/>
		<path class="st3" d="M47.811,55.176c-0.713,0-1.335-0.506-1.472-1.217c-0.024-0.124-2.495-12.418-11.523-12.843
			c-0.77-0.037-1.387-0.651-1.427-1.421c-0.04-0.771,0.511-1.445,1.273-1.561c0.441-0.069,10.894-1.817,11.754-12.032
			c0.061-0.725,0.634-1.301,1.359-1.367c0.718-0.063,1.393,0.399,1.583,1.102c0.032,0.116,3.259,11.626,11.863,12.14
			c0.714,0.043,1.298,0.584,1.396,1.292c0.098,0.708-0.319,1.388-0.994,1.623c-0.121,0.042-12.118,4.31-12.313,12.819
			c-0.018,0.767-0.61,1.396-1.374,1.459C47.895,55.175,47.852,55.176,47.811,55.176z M40.07,39.447
			c3.878,1.969,6.23,5.746,7.587,8.876c2.026-4.022,5.941-6.787,8.949-8.427c-4.134-1.842-6.783-5.651-8.334-8.722
			C46.478,35.534,43,38.042,40.07,39.447z"/>
		<path class="st11" d="M26.212,43.209c0,0,2.411,8.954,9.352,9.369c0,0-9.266,3.201-9.422,10.045c0,0-1.824-9.6-9.142-9.944
			C17,52.679,25.524,51.388,26.212,43.209z"/>
		<path class="st3" d="M26.141,64.124c-0.713,0-1.337-0.507-1.472-1.22c-0.016-0.082-1.704-8.441-7.739-8.726
			c-0.77-0.037-1.387-0.651-1.427-1.421c-0.04-0.771,0.511-1.445,1.273-1.561c0.296-0.047,7.364-1.243,7.942-8.113
			c0.061-0.726,0.635-1.303,1.36-1.368c0.729-0.063,1.392,0.4,1.582,1.102l0,0c0.021,0.079,2.228,7.919,7.994,8.264
			c0.715,0.043,1.299,0.584,1.396,1.293c0.098,0.709-0.319,1.388-0.996,1.622c-0.081,0.028-8.282,2.953-8.413,8.662
			c-0.018,0.767-0.611,1.397-1.376,1.461C26.224,64.122,26.182,64.124,26.141,64.124z M21.622,52.596
			c2.107,1.333,3.523,3.394,4.447,5.28c1.376-2.232,3.515-3.872,5.365-4.973c-2.287-1.269-3.884-3.35-4.941-5.224
			C25.319,49.966,23.478,51.555,21.622,52.596z"/>
		<path class="st11" d="M26.212,16.551c0,0,2.411,8.954,9.352,9.37c0,0-9.266,3.201-9.422,10.045c0,0-1.824-9.6-9.142-9.944
			C17,26.022,25.524,24.731,26.212,16.551z"/>
		<path class="st3" d="M26.141,37.466c-0.713,0-1.337-0.507-1.472-1.22c-0.016-0.082-1.704-8.442-7.739-8.726
			c-0.771-0.037-1.388-0.651-1.428-1.421c-0.04-0.771,0.511-1.445,1.273-1.56c0.296-0.047,7.364-1.243,7.942-8.114
			c0.061-0.726,0.635-1.303,1.36-1.368c0.729-0.064,1.392,0.4,1.582,1.102l0,0c0.021,0.079,2.228,7.92,7.994,8.265
			c0.714,0.043,1.299,0.584,1.396,1.294c0.098,0.709-0.32,1.388-0.996,1.622c-0.081,0.028-8.282,2.952-8.413,8.662
			c-0.018,0.767-0.611,1.397-1.376,1.461C26.224,37.465,26.182,37.466,26.141,37.466z M21.622,25.938
			c2.107,1.333,3.523,3.395,4.447,5.28c1.376-2.233,3.515-3.872,5.365-4.972c-2.287-1.269-3.884-3.35-4.941-5.224
			C25.319,23.309,23.478,24.897,21.622,25.938z"/>
		<path class="st8" d="M170.44,61.621v32.03c0,4.5-3.645,8.145-8.145,8.145H90.687c-4.5,0-8.145-3.645-8.145-8.145v-32.03
			l43.949,22.353L170.44,61.621z"/>
		<path class="st3" d="M162.296,103.296H90.687c-5.318,0-9.645-4.327-9.645-9.645v-32.03c0-0.521,0.271-1.006,0.716-1.279
			c0.445-0.272,0.999-0.294,1.464-0.058l43.268,22.007l43.27-22.007c0.464-0.237,1.018-0.215,1.464,0.058
			c0.444,0.273,0.716,0.757,0.716,1.279v32.03C171.94,98.969,167.614,103.296,162.296,103.296z M84.042,64.067v29.585
			c0,3.664,2.981,6.645,6.645,6.645h71.609c3.664,0,6.645-2.981,6.645-6.645V64.067l-41.769,21.245c-0.428,0.218-0.933,0.218-1.36,0
			L84.042,64.067z"/>
		<polygon class="st8" points="93.994,33.236 60.366,50.34 126.491,83.973 192.616,50.34 126.491,16.708 105.584,27.342 		"/>
		<path class="st3" d="M126.491,85.473c-0.233,0-0.466-0.054-0.68-0.163L59.686,51.677c-0.503-0.256-0.82-0.772-0.82-1.337
			c0-0.564,0.317-1.081,0.82-1.337l33.628-17.104c0.738-0.375,1.642-0.082,2.017,0.657c0.375,0.739,0.081,1.642-0.657,2.017
			l-31,15.767l62.816,31.95l62.816-31.95l-62.816-31.949l-20.227,10.288c-0.738,0.376-1.641,0.083-2.017-0.657
			c-0.375-0.739-0.082-1.642,0.657-2.017l20.908-10.634c0.428-0.218,0.933-0.218,1.36,0l66.125,33.632
			c0.504,0.256,0.82,0.773,0.82,1.337c0,0.564-0.316,1.081-0.82,1.337L127.171,85.31C126.957,85.419,126.725,85.473,126.491,85.473z
			"/>
		<path class="st5" d="M192.616,50.341v40.965c-1.694-2.177-3.984-3.516-6.516-3.516c-2.516,0-4.806,1.339-6.5,3.516V56.953
			L192.616,50.341z"/>
		<path class="st3" d="M192.616,92.806c-0.454,0-0.895-0.207-1.184-0.579c-1.474-1.894-3.366-2.937-5.332-2.937
			c-1.955,0-3.843,1.043-5.316,2.937c-0.393,0.506-1.067,0.705-1.67,0.498c-0.607-0.208-1.014-0.778-1.014-1.419V56.953
			c0-0.565,0.317-1.082,0.82-1.337l13.016-6.612c0.464-0.235,1.021-0.215,1.464,0.059c0.445,0.272,0.716,0.757,0.716,1.278v40.965
			c0,0.641-0.407,1.211-1.014,1.419C192.943,92.779,192.779,92.806,192.616,92.806z M186.101,86.29c1.775,0,3.486,0.541,5.016,1.562
			V52.785l-10.016,5.088v29.977C182.627,86.831,184.332,86.29,186.101,86.29z"/>
		<ellipse class="st5" cx="186.105" cy="100.806" rx="9.528" ry="13.014"/>
		<path class="st3" d="M186.105,115.321c-6.081,0-11.028-6.511-11.028-14.515c0-8.004,4.947-14.515,11.028-14.515
			c6.081,0,11.028,6.511,11.028,14.515C197.134,108.81,192.186,115.321,186.105,115.321z M186.105,89.291
			c-4.427,0-8.028,5.166-8.028,11.515c0,6.349,3.602,11.515,8.028,11.515c4.427,0,8.028-5.166,8.028-11.515
			C194.134,94.457,190.532,89.291,186.105,89.291z"/>
		<path class="st10" d="M237.74,91.388v145.83c-4.45-1.77-8.96-3.31-13.5-4.62v-20.32c0.226-0.089,0.081-0.032,0.307-0.12
			c0.879,0.876,2.215,0.423,2.513-0.6c0.24-0.79-0.2-1.63-1-1.87c-0.6-0.18-1.21-0.36-1.82-0.53v-17.59
			c0.226-0.089,0.081-0.032,0.307-0.12c0.879,0.875,2.215,0.423,2.513-0.6c0.24-0.79-0.2-1.63-1-1.87c-0.6-0.18-1.21-0.36-1.82-0.53
			v-17.59c0.226-0.089,0.081-0.032,0.307-0.12c0.879,0.876,2.215,0.423,2.513-0.6c0.332-1.094-0.639-2.284-2.065-1.844
			c-0.346-0.257-0.41-0.304-0.755-0.56c0-3.387,0-15.001,0-17.588c0.227-0.087,0.08-0.031,0.307-0.118
			c0.879,0.876,2.215,0.423,2.513-0.6c0.332-1.094-0.639-2.284-2.065-1.844c-0.346-0.257-0.41-0.304-0.755-0.561
			c0-3.387,0-15.001,0-17.588c0.227-0.087,0.08-0.031,0.307-0.118c0.879,0.875,2.215,0.423,2.513-0.6c0.24-0.79-0.2-1.63-1-1.87
			c-0.6-0.18-1.21-0.36-1.82-0.53v-17.59c0.222-0.088,0.082-0.032,0.304-0.12c0.879,0.869,2.218,0.437,2.516-0.6
			c0.24-0.79-0.2-1.63-1-1.87c-0.61-0.18-1.21-0.36-1.82-0.53v-4.634c0-6.579-4.225-12.425-10.478-14.468
			c-6.452-2.107-13.016-3.752-19.642-4.928v-0.45C208.92,82.229,223.61,85.648,237.74,91.388z"/>
	</g>
</g>
</svg>
